<svg xmlns="http://www.w3.org/2000/svg" version="1.1" xmlns:xlink="http://www.w3.org/1999/xlink" xmlns:svgjs="http://svgjs.dev/svgjs" width="2000" height="1247" viewBox="0 0 2000 1247"><g transform="matrix(1,0,0,1,-1.2121212121212466,0.504858299595071)"><svg viewBox="0 0 396 247" data-background-color="#89939e" preserveAspectRatio="xMidYMid meet" height="1247" width="2000" xmlns="http://www.w3.org/2000/svg" xmlns:xlink="http://www.w3.org/1999/xlink"><g id="tight-bounds" transform="matrix(1,0,0,1,0.2400000000000091,-0.09999999999999432)"><svg viewBox="0 0 395.52 247.2" height="247.2" width="395.52"><g><svg></svg></g><g><svg viewBox="0 0 395.52 247.2" height="247.2" width="395.52"><g transform="matrix(1,0,0,1,75.54432,98.58261259244127)"><svg viewBox="0 0 244.43135999999998 50.034774815117466" height="50.034774815117466" width="244.43135999999998"><g><svg viewBox="0 0 244.43135999999998 50.034774815117466" height="50.034774815117466" width="244.43135999999998"><g><svg viewBox="0 0 244.43135999999998 50.034774815117466" height="50.034774815117466" width="244.43135999999998"><g><svg viewBox="0 0 244.43135999999998 50.034774815117466" height="50.034774815117466" width="244.43135999999998"><g id="textblocktransform"><svg viewBox="0 0 244.43135999999998 50.034774815117466" height="50.034774815117466" width="244.43135999999998" id="textblock"><g><svg viewBox="0 0 244.43135999999998 50.034774815117466" height="50.034774815117466" width="244.43135999999998"><g transform="matrix(1,0,0,1,0,0)"><svg width="244.43135999999998" viewBox="1.4 -37.5 244.72 50.1" height="50.034774815117466" data-palette-color="#000000"><path d="M13 0.5L13 0.5Q9.2 0.5 6.61-1.28 4.03-3.05 2.71-6 1.4-8.95 1.4-12.45L1.4-12.45Q1.4-15.95 2.71-18.9 4.03-21.85 6.61-23.63 9.2-25.4 13-25.4L13-25.4Q15.75-25.4 17.65-24.49 19.55-23.58 21-22.15L21-22.15 19.5-20.85 19.5-37.5 25.7-37.5 25.7 0 19.85 0 19.55-4.25 21.35-2.95Q19.6-1.35 17.73-0.43 15.85 0.5 13 0.5ZM13.9-4.6L13.9-4.6Q15.95-4.6 17.25-5.6 18.55-6.6 19.18-8.36 19.8-10.13 19.8-12.45L19.8-12.45Q19.8-14.78 19.18-16.54 18.55-18.3 17.25-19.3 15.95-20.3 13.9-20.3L13.9-20.3Q11.95-20.3 10.58-19.3 9.2-18.3 8.47-16.54 7.75-14.78 7.75-12.45L7.75-12.45Q7.75-10.13 8.47-8.36 9.2-6.6 10.58-5.6 11.95-4.6 13.9-4.6ZM37.65 0L31.45 0 31.45-25 37.65-25 37.65 0ZM37.65-28.8L31.45-28.8 31.45-35 37.65-35 37.65-28.8ZM53.34 12.6L53.34 12.6Q49.84 12.6 47.23 11.74 44.62 10.88 43.18 9.28 41.75 7.68 41.75 5.45L41.75 5.45Q41.75 3.58 42.78 2.11 43.82 0.65 45.8-0.45L45.8-0.45Q44.8-1.05 44.2-1.95 43.59-2.85 43.59-4L43.59-4Q43.59-5.2 44.28-6.09 44.97-6.98 46.09-7.5L46.09-7.5Q44.2-8.85 43.22-10.96 42.25-13.08 42.25-15.55L42.25-15.55Q42.25-18.25 43.42-20.51 44.59-22.78 46.86-24.14 49.12-25.5 52.4-25.5L52.4-25.5Q54.09-25.5 55.53-25.08 56.97-24.65 58.09-23.9L58.09-23.9Q58.84-24.33 60.27-24.66 61.7-25 63.45-25L63.45-25Q63.87-25 64.26-25 64.65-25 65.05-25L65.05-25 64.65-21.1Q64.09-21.1 63.53-21.1 62.97-21.1 62.4-21.1L62.4-21.1Q62.17-21.1 61.8-21.1 61.42-21.1 61-21.05L61-21.05Q61.75-19.9 62.12-18.48 62.5-17.05 62.5-15.55L62.5-15.55Q62.5-12.85 61.33-10.59 60.17-8.33 57.92-6.96 55.67-5.6 52.4-5.6L52.4-5.6Q51.7-5.6 51.05-5.7 50.4-5.8 49.75-5.95L49.75-5.95Q49.2-5.73 49.2-5.15L49.2-5.15Q49.2-4.48 50.02-4.13 50.84-3.78 52.59-3.5L52.59-3.5 56.9-2.95Q60.92-2.43 63.21-0.68 65.5 1.07 65.5 4.3L65.5 4.3Q65.5 6.8 64.06 8.66 62.62 10.53 59.9 11.56 57.17 12.6 53.34 12.6ZM53.59 7.9L53.59 7.9Q56.75 7.9 58.37 7.13 60 6.35 60 4.75L60 4.75Q60 3.33 58.86 2.65 57.72 1.98 55.25 1.6L55.25 1.6 49.77 0.8Q48.55 1.28 47.72 2.11 46.9 2.95 46.9 4.3L46.9 4.3Q46.9 6.13 48.67 7.01 50.45 7.9 53.59 7.9ZM52.4-10.2L52.4-10.2Q54.62-10.2 55.76-11.66 56.9-13.13 56.9-15.55L56.9-15.55Q56.9-18 55.76-19.45 54.62-20.9 52.4-20.9L52.4-20.9Q50.15-20.9 49-19.45 47.84-18 47.84-15.55L47.84-15.55Q47.84-13.13 49-11.66 50.15-10.2 52.4-10.2ZM75.84 0L69.64 0 69.64-25 75.84-25 75.84 0ZM75.84-28.8L69.64-28.8 69.64-35 75.84-35 75.84-28.8ZM94.24 0.5L89.79 0.5Q87.44 0.5 85.97-0.46 84.49-1.43 83.79-2.93 83.09-4.42 83.09-6.05L83.09-6.05 83.09-19.9 79.54-19.9 80.09-25 83.09-25 83.09-30.5 89.29-31.15 89.29-25 94.79-25 94.79-19.9 89.29-19.9 89.29-8.6Q89.29-6.7 89.52-5.86 89.74-5.03 90.54-4.81 91.34-4.6 93.09-4.6L93.09-4.6 94.79-4.6 94.24 0.5ZM104.24 0.5L104.24 0.5Q102.24 0.5 100.59-0.39 98.94-1.28 97.96-2.95 96.99-4.63 96.99-7L96.99-7Q96.99-9.13 97.98-10.64 98.96-12.15 100.58-13.16 102.19-14.18 104.08-14.76 105.96-15.35 107.8-15.63 109.64-15.9 111.04-15.95L111.04-15.95Q110.94-18.1 109.94-19.07 108.94-20.05 106.54-20.05L106.54-20.05Q104.86-20.05 103.28-19.59 101.69-19.13 99.69-18.15L99.69-18.15 99.14-23.2Q101.39-24.3 103.65-24.85 105.91-25.4 108.24-25.4L108.24-25.4Q111.04-25.4 113.06-24.4 115.09-23.4 116.19-21.19 117.29-18.98 117.29-15.35L117.29-15.35 117.29-8.6Q117.29-6.73 117.46-5.89 117.64-5.05 118.11-4.83 118.59-4.6 119.49-4.6L119.49-4.6 120.29-4.6 119.74 0.5 117.49 0.5Q116.09 0.5 115 0.14 113.91-0.23 113.14-0.88 112.36-1.53 111.89-2.4L111.89-2.4Q110.66-1.03 108.58-0.26 106.49 0.5 104.24 0.5ZM106.84-4.25L106.84-4.25Q107.66-4.25 108.89-4.69 110.11-5.13 111.09-6.05L111.09-6.05 111.09-11.75Q109.34-11.68 107.59-11.18 105.84-10.68 104.66-9.7 103.49-8.72 103.49-7.25L103.49-7.25Q103.49-5.73 104.29-4.99 105.09-4.25 106.84-4.25ZM132.39 0.5L130.14 0.5Q127.91 0.5 126.5-0.39 125.09-1.28 124.41-2.76 123.74-4.25 123.74-6.05L123.74-6.05 123.74-37.5 129.94-37.5 129.94-8.6Q129.94-6.6 130.17-5.76 130.41-4.93 131.06-4.76 131.71-4.6 132.94-4.6L132.94-4.6 132.39 0.5ZM154.33 0L148.13 0 148.13-25 153.43-25 153.83-21.35 152.93-22.45Q154.36-23.58 156.34-24.49 158.33-25.4 160.98-25.4L160.98-25.4Q162.98-25.4 164.52-24.81 166.06-24.23 167.16-23.14 168.26-22.05 168.93-20.55L168.93-20.55 167.43-20.9Q168.63-23.05 170.94-24.23 173.26-25.4 176.18-25.4L176.18-25.4Q179.63-25.4 181.81-23.98 183.98-22.55 185.01-19.96 186.03-17.38 186.03-13.9L186.03-13.9 186.03 0 179.83 0 179.83-13.45Q179.83-16.95 178.74-18.63 177.66-20.3 175.13-20.3L175.13-20.3Q173.88-20.3 172.94-19.86 172.01-19.43 171.39-18.59 170.78-17.75 170.48-16.56 170.18-15.38 170.18-13.9L170.18-13.9 170.18 0 163.98 0 163.98-13.45Q163.98-15.78 163.49-17.3 163.01-18.82 161.94-19.56 160.88-20.3 159.18-20.3L159.18-20.3Q157.01-20.3 155.62-19.29 154.23-18.28 153.18-16.55L153.18-16.55 154.33-19.9 154.33 0ZM196.98 0.5L196.98 0.5Q194.98 0.5 193.33-0.39 191.68-1.28 190.7-2.95 189.73-4.63 189.73-7L189.73-7Q189.73-9.13 190.72-10.64 191.7-12.15 193.31-13.16 194.93-14.18 196.81-14.76 198.7-15.35 200.54-15.63 202.38-15.9 203.78-15.95L203.78-15.95Q203.68-18.1 202.68-19.07 201.68-20.05 199.28-20.05L199.28-20.05Q197.6-20.05 196.02-19.59 194.43-19.13 192.43-18.15L192.43-18.15 191.88-23.2Q194.13-24.3 196.39-24.85 198.65-25.4 200.98-25.4L200.98-25.4Q203.78-25.4 205.8-24.4 207.83-23.4 208.93-21.19 210.03-18.98 210.03-15.35L210.03-15.35 210.03-8.6Q210.03-6.73 210.2-5.89 210.38-5.05 210.85-4.83 211.33-4.6 212.23-4.6L212.23-4.6 213.03-4.6 212.48 0.5 210.23 0.5Q208.83 0.5 207.74 0.14 206.65-0.23 205.88-0.88 205.1-1.53 204.63-2.4L204.63-2.4Q203.4-1.03 201.31-0.26 199.23 0.5 196.98 0.5ZM199.58-4.25L199.58-4.25Q200.4-4.25 201.63-4.69 202.85-5.13 203.83-6.05L203.83-6.05 203.83-11.75Q202.08-11.68 200.33-11.18 198.58-10.68 197.4-9.7 196.23-8.72 196.23-7.25L196.23-7.25Q196.23-5.73 197.03-4.99 197.83-4.25 199.58-4.25ZM222.68 0L216.48 0 216.48-25 222.28-25 222.43-22.35Q223.38-23.4 225.1-24.45 226.83-25.5 228.88-25.5L228.88-25.5Q229.48-25.5 229.98-25.4L229.98-25.4 229.53-19.3Q228.98-19.45 228.44-19.5 227.9-19.55 227.38-19.55L227.38-19.55Q225.8-19.55 224.5-18.82 223.2-18.1 222.68-17.05L222.68-17.05 222.68 0ZM245.57 0.5L241.12 0.5Q238.77 0.5 237.3-0.46 235.82-1.43 235.12-2.93 234.42-4.42 234.42-6.05L234.42-6.05 234.42-19.9 230.87-19.9 231.42-25 234.42-25 234.42-30.5 240.62-31.15 240.62-25 246.12-25 246.12-19.9 240.62-19.9 240.62-8.6Q240.62-6.7 240.85-5.86 241.07-5.03 241.87-4.81 242.67-4.6 244.42-4.6L244.42-4.6 246.12-4.6 245.57 0.5Z" opacity="1" transform="matrix(1,0,0,1,0,0)" fill="#000000" class="wordmark-text-0" data-fill-palette-color="primary" id="text-0"></path></svg></g></svg></g></svg></g></svg></g></svg></g></svg></g></svg></g><path d="M191.196 92.583L191.196 32.063 8.121 32.063 8.121 215.137 191.196 215.137 191.196 154.617 186.684 154.617 186.684 210.625 12.633 210.625 12.633 36.575 186.684 36.575 186.684 92.583Z" fill="#000000" stroke="transparent" data-fill-palette-color="tertiary"></path></svg></g><defs></defs></svg><rect width="395.52" height="247.2" fill="none" stroke="none" visibility="hidden"></rect></g></svg></g></svg>